<svg width="61" height="57" viewBox="0 0 61 57" fill="none" xmlns="http://www.w3.org/2000/svg">
<path fill-rule="evenodd" clip-rule="evenodd" d="M33.4493 0.177832C31.5233 0.557909 29.3402 1.50313 27.8473 2.60337C27.3681 2.95639 26.4627 3.77627 25.8351 4.4252L24.694 5.60503L23.6592 5.31187C22.7832 5.06354 22.3186 5.02002 20.632 5.0276C18.8678 5.03557 18.5061 5.07661 17.4725 5.38598C13.1069 6.69272 9.92129 10.0996 9.06777 14.3745L8.84397 15.4953L7.89761 15.7935C6.67419 16.1792 5.6856 16.673 4.69342 17.3942C1.44154 19.7575 -0.210097 23.2041 0.0214119 27.1435C0.122622 28.8645 0.358514 29.7673 1.1059 31.2927C2.50146 34.1416 4.93728 36.1999 8.14679 37.2427C9.01823 37.526 9.32837 37.5481 13.0944 37.5949L17.1123 37.6446V40.0421V42.4395L16.1897 43.0997C15.268 43.7593 15.2667 43.7599 14.7993 43.5677C13.5481 43.0532 12.0956 43.5991 11.5838 44.7762C11.166 45.7371 11.5056 47.1145 12.2944 47.6593C14.0143 48.8468 16.2003 47.7986 16.2301 45.772L16.2409 45.0341L17.4709 44.1402L18.7008 43.2463L18.7367 40.4682L18.7725 37.6899L20.8645 37.6539L22.9564 37.6179V43.0886V48.5592L22.016 49.2196C21.0793 49.8773 21.0739 49.879 20.6561 49.6739C19.1203 48.9199 17.2451 50.1208 17.2451 51.8583C17.2451 52.6124 17.3715 52.9299 17.8922 53.4836C18.4025 54.0261 18.8715 54.2235 19.6508 54.2235C21.0329 54.2235 22.0653 53.1898 22.084 51.7875L22.0931 51.1055L23.1557 50.3638C23.7401 49.9557 24.293 49.5286 24.3843 49.4143C24.5114 49.2555 24.5503 47.864 24.5503 43.4811V37.7552H26.8747H29.199V45.0744C29.199 49.4613 29.1499 52.3937 29.0765 52.3937C28.8256 52.3937 28.1159 53.0973 27.8505 53.6092C27.1528 54.9549 28.0537 56.707 29.5757 56.9646C30.6819 57.1519 31.8183 56.58 32.2655 55.611C32.7714 54.5148 32.4317 53.3493 31.3972 52.6318L30.7907 52.2111L30.8251 44.9505L30.8593 37.6899L33.1505 37.6541L35.4417 37.6184V43.233C35.4417 46.362 35.4961 48.9887 35.5647 49.1661C35.6325 49.3415 36.2142 49.8515 36.8597 50.3015L38.0317 51.1184L38.0361 51.8701C38.044 53.2345 39.0591 54.2237 40.4504 54.2232C42.1202 54.2227 43.2828 52.6194 42.7548 51.0452C42.5527 50.4422 41.7114 49.7014 41.0213 49.5185C40.4835 49.376 40.368 49.3869 39.4031 49.6712C38.9345 49.8093 38.8803 49.7898 38.0417 49.1839L37.1684 48.5529V43.0887V37.6245H39.2271H41.2858V40.3692C41.2858 43.5148 41.1442 43.1432 42.7799 44.2902L43.8051 45.0091L43.808 45.7279C43.8166 47.9028 46.3902 48.97 47.9426 47.4425C49.0681 46.3348 48.8795 44.5825 47.5452 43.7498C46.8553 43.3193 45.8635 43.2429 45.2239 43.5713C45.0156 43.6782 44.7725 43.722 44.6838 43.6685C44.595 43.615 44.1528 43.3129 43.7011 42.997L42.8797 42.4225V40.0341V37.6458L46.6319 37.592C50.0399 37.5432 50.4755 37.5115 51.3803 37.2454C53.6535 36.577 55.6162 35.4366 57.2345 33.8441C58.889 32.2161 59.9051 30.5114 60.6293 28.1487C60.9563 27.0824 60.9909 26.7709 60.9991 24.8159C61.007 22.9509 60.9667 22.5092 60.7008 21.5484C60.0884 19.3344 59 17.445 57.3643 15.7559C55.6985 14.0355 53.4064 12.7175 51.1561 12.1861L50.2443 11.9708L49.9025 10.5799C48.6006 5.28116 44.2359 1.19337 38.7837 0.166461C37.5792 -0.0604344 34.6247 -0.0541606 33.4493 0.177832ZM33.73 1.74532C32.0112 2.12801 30.3766 2.80778 29.0662 3.68478C28.2466 4.23346 26.8974 5.51498 26.1878 6.4189C25.3556 7.47927 25.2634 7.51025 24.1077 7.11776C20.0358 5.73482 15.601 6.92445 12.837 10.1411C11.631 11.5447 10.6887 13.7432 10.5179 15.5524C10.4712 16.0476 10.3661 16.5426 10.2844 16.6525C10.2027 16.7623 9.65856 16.9693 9.07495 17.1124C5.9786 17.8716 3.3656 20.127 2.23821 23.0135C0.730282 26.8743 1.90576 31.2599 5.1583 33.9084C5.56008 34.2356 6.42674 34.76 7.08421 35.0735C9.30247 36.1318 7.78631 36.0695 30.1952 36.0242C52.725 35.9787 50.543 36.0884 53.0406 34.876C56.03 33.4249 58.1662 30.8723 59.108 27.6259C59.3641 26.7435 59.4099 26.2847 59.4022 24.6852C59.3941 23.0207 59.3499 22.6501 59.038 21.6403C57.7553 17.486 54.5836 14.5641 50.3492 13.6364C49.8571 13.5286 49.3274 13.4128 49.1724 13.379C48.838 13.3062 48.6428 12.855 48.5275 11.8879C48.4812 11.4988 48.2684 10.646 48.0547 9.99277C47.0531 6.93177 44.721 4.28601 41.7226 2.80896C39.9917 1.9564 38.689 1.65527 36.5042 1.60273C35.1517 1.57031 34.3257 1.61266 33.73 1.74532ZM26.2314 10.7074C25.8879 10.9734 25.8785 11.0185 25.8785 12.4089V13.8371L25.3804 13.8384C25.1065 13.839 24.5811 13.9777 24.2128 14.1464C23.1555 14.6309 22.4719 15.5666 22.3331 16.7195L22.2553 17.366H20.8334C19.6245 17.366 19.3785 17.4018 19.1916 17.605C18.8961 17.9264 18.9144 18.3551 19.2374 18.673C19.4693 18.9012 19.6801 18.9344 20.8977 18.9344H22.2923V20.0453V21.1563H21.0367C19.6545 21.1563 19.1369 21.3108 19.023 21.7574C18.8129 22.5812 19.3158 22.8554 21.0367 22.8554H22.2923V23.9663V25.0773H20.8977C19.6801 25.0773 19.4693 25.1105 19.2374 25.3387C18.9059 25.6649 18.8959 26.1455 19.2147 26.4294C19.4084 26.6018 19.7412 26.6457 20.8564 26.6457H22.2553L22.3331 27.2921C22.4206 28.0196 22.6452 28.5082 23.1786 29.132C23.5906 29.6139 24.6984 30.1715 25.2476 30.1733L25.6129 30.1746V31.5324C25.6129 33.0601 25.7918 33.4748 26.4506 33.4748C27.1092 33.4748 27.195 33.2807 27.2357 31.6978L27.2731 30.24L28.2905 30.202L29.3081 30.164L29.3531 31.6026C29.4028 33.1838 29.5336 33.4748 30.1952 33.4748C30.8568 33.4748 30.9876 33.1837 31.0372 31.6032L31.0823 30.1651L32.299 30.2026L33.5158 30.24L33.5822 31.7044C33.6212 32.5665 33.7127 33.2317 33.8046 33.3219C34.0638 33.5758 34.6737 33.5008 34.9356 33.1825C35.1331 32.9424 35.176 32.6482 35.176 31.5324V30.1746H35.825C37.2852 30.1746 38.6374 28.9826 38.937 27.4312L39.0887 26.6457H40.5117C41.8319 26.6457 41.9498 26.6246 42.1416 26.3551C42.4199 25.9642 42.4019 25.6528 42.0828 25.3387C41.8509 25.1105 41.6401 25.0773 40.4225 25.0773H39.0279V23.9663V22.8554H40.3382C41.4626 22.8554 41.6981 22.817 41.9984 22.5844C42.1995 22.4289 42.3484 22.1827 42.3484 22.0058C42.3484 21.829 42.1995 21.5828 41.9984 21.4272C41.6981 21.1947 41.4626 21.1563 40.3382 21.1563H39.0279V20.0453V18.9344H40.4225C41.6401 18.9344 41.8509 18.9012 42.0828 18.673C42.4019 18.3589 42.4199 18.0474 42.1416 17.6565C41.9498 17.387 41.8319 17.366 40.5117 17.366H39.0887L38.9329 16.5597C38.6532 15.1109 37.4834 13.9969 36.105 13.8665L35.4417 13.8039V12.4626C35.4417 10.9529 35.2608 10.5369 34.604 10.5369C33.9453 10.5369 33.8595 10.731 33.8189 12.3139L33.7814 13.7717L32.6236 13.8094L31.4658 13.8471L31.4282 12.3855C31.3921 10.9796 31.3773 10.9141 31.042 10.668C30.7442 10.4496 30.6472 10.4361 30.3778 10.5758C30.2044 10.6657 30.0184 10.8042 29.9648 10.8832C29.9111 10.9623 29.8663 11.6616 29.8651 12.4371L29.8632 13.8473L28.701 13.8095L27.5388 13.7717L27.4724 12.3072C27.4358 11.5018 27.3462 10.788 27.2731 10.7209C26.9707 10.4432 26.5794 10.4382 26.2314 10.7074ZM24.7083 15.6703C23.903 16.1533 23.8862 16.2832 23.8862 22.0146C23.8862 27.7485 23.9007 27.8568 24.7389 28.3597C25.1217 28.5895 25.501 28.6053 30.6444 28.6057C35.9269 28.6062 36.1577 28.5959 36.5748 28.3423C37.4036 27.8382 37.434 27.6142 37.434 22.0058C37.434 16.3975 37.4036 16.1735 36.5748 15.6693C36.1577 15.4158 35.9269 15.4055 30.6444 15.406C25.3658 15.4064 25.1306 15.4168 24.7083 15.6703ZM28.0701 18.5901C27.5056 18.849 26.8267 19.5917 26.6732 20.1183C26.6013 20.3648 26.5426 21.5813 26.5426 22.8218C26.5426 24.9031 26.5632 25.0975 26.8083 25.3387C27.1398 25.6649 27.6282 25.6747 27.9167 25.361C28.0782 25.1854 28.1365 24.8735 28.1365 24.1847V23.2475H29.0662H29.996V24.2075C29.996 24.9716 30.0455 25.2116 30.2389 25.3838C30.5687 25.6776 31.002 25.6558 31.3344 25.3286C31.5974 25.0698 31.6083 24.9431 31.5669 22.6166C31.5181 19.8786 31.454 19.6561 30.4921 18.8911C30.0899 18.5712 29.8427 18.4849 29.2303 18.4504C28.7676 18.4242 28.3121 18.4791 28.0701 18.5901ZM33.4035 18.6506C33.2119 18.8591 33.1837 19.2912 33.1837 22.0286C33.1837 24.9035 33.2042 25.1856 33.4266 25.3838C33.7532 25.6746 34.1889 25.6566 34.5119 25.3387C34.7626 25.0921 34.7776 24.9031 34.7776 22.0058C34.7776 19.1086 34.7626 18.9196 34.5119 18.673C34.1804 18.3467 33.692 18.3369 33.4035 18.6506ZM28.4118 20.3244C28.2571 20.5178 28.1365 20.8615 28.1365 21.1086V21.5484H29.0838H30.0309L29.9555 20.9942C29.824 20.0299 28.9501 19.6507 28.4118 20.3244ZM13.2146 45.1828C12.985 45.4326 12.9274 45.9441 13.0992 46.2098C13.2865 46.4997 13.8608 46.6328 14.2033 46.4657C14.6124 46.2662 14.7103 45.554 14.3781 45.1929C14.0878 44.8771 13.5004 44.872 13.2146 45.1828ZM45.6231 45.1828C45.1387 45.7094 45.538 46.5448 46.2741 46.5448C46.9726 46.5448 47.2857 45.7354 46.794 45.2008C46.4971 44.878 45.9116 44.869 45.6231 45.1828ZM19.0476 51.292C18.7659 51.5693 18.7838 52.1734 19.0819 52.4387C19.6128 52.9115 20.4328 52.5463 20.4328 51.8373C20.4328 51.3921 20.1085 51.0867 19.6359 51.0867C19.4272 51.0867 19.1625 51.1791 19.0476 51.292ZM39.7553 51.3996C39.5058 51.7744 39.6107 52.3416 39.9641 52.5278C40.5936 52.8593 41.2858 52.4764 41.2858 51.7966C41.2858 51.109 40.1458 50.8131 39.7553 51.3996ZM29.4059 54.1219C29.2922 54.2816 29.199 54.5038 29.199 54.6156C29.199 55.3145 30.1392 55.651 30.6601 55.1384C31.1865 54.6204 30.8256 53.8314 30.0624 53.8314C29.7481 53.8314 29.5502 53.9189 29.4059 54.1219Z" fill="white"/>
</svg>
