<svg width="62" height="58" viewBox="0 0 62 58" fill="none" xmlns="http://www.w3.org/2000/svg">
<path fill-rule="evenodd" clip-rule="evenodd" d="M28.2109 0.14079C26.8461 0.362228 24.7468 1.04647 23.4715 1.68562C20.3484 3.2505 17.3425 6.30221 15.9796 9.29155L15.5948 10.1356L13.7971 10.2124C8.96977 10.4187 4.95581 12.6816 2.31263 16.6869C-0.0353447 20.2453 -0.643364 24.8915 0.709046 28.943C2.38942 33.9776 6.7199 37.6831 11.9924 38.5981C12.8865 38.7533 14.2274 38.7945 18.3724 38.7945H23.6204V36.7501V34.7057L18.6445 34.7046C15.7789 34.7041 13.3146 34.6466 12.834 34.5692C10.601 34.2091 8.82274 33.2923 7.17267 31.6503C5.41924 29.9055 4.50214 28.0459 4.19293 25.6083C3.93264 23.5569 4.44294 21.1752 5.54277 19.3085C6.22681 18.1477 8.00772 16.3755 9.17432 15.6948C11.1389 14.5488 13.3887 14.0996 15.7585 14.3799C17.4158 14.576 17.8795 14.4798 18.4631 13.8182C18.6706 13.5831 18.9704 12.9972 19.1295 12.5163C20.2079 9.25641 22.5486 6.65436 25.7239 5.18582C27.4328 4.39551 28.7839 4.11044 30.8114 4.11274C32.1677 4.11428 32.7928 4.17625 33.6848 4.39781C37.8226 5.42565 41.1675 8.50853 42.4932 12.5163C42.8129 13.483 43.3151 14.1443 43.9185 14.3929C44.2407 14.5257 44.591 14.5244 45.8022 14.3855C49.2483 13.9906 52.0679 14.9462 54.45 17.3167C56.2035 19.0615 57.1206 20.9211 57.4298 23.3587C57.6901 25.4101 57.1798 27.7918 56.0799 29.6585C55.3959 30.8193 53.615 32.5915 52.4484 33.2721C51.4223 33.8706 50.0046 34.3731 48.7887 34.5692C48.3081 34.6466 45.8438 34.7041 42.9782 34.7046L38.0023 34.7057V36.7501V38.7945H43.2503C47.3251 38.7945 48.7438 38.752 49.5964 38.604C55.7274 37.54 60.3732 32.9017 61.4485 26.7708C61.8776 24.3235 61.5097 21.293 60.4867 18.8475C59.6207 16.7776 57.705 14.3508 55.8672 12.9956C53.437 11.2034 50.9337 10.3359 47.8256 10.209L46.0279 10.1356L45.643 9.29155C44.9581 7.78915 43.8196 6.21774 42.3844 4.79367C39.9476 2.376 37.3754 0.981308 34.0216 0.259367C32.6879 -0.0277483 29.6341 -0.0899754 28.2109 0.14079ZM26.8949 28.7498C26.4213 28.9628 25.9935 29.4133 25.812 29.8904C25.723 30.1241 25.675 32.1018 25.675 35.5353V40.8206L23.7577 40.8617C22.0596 40.8981 21.8001 40.933 21.4864 41.1663C20.8144 41.6662 20.6028 42.0761 20.6028 42.8774V43.6193L24.9687 50.1144C27.37 53.6867 29.4977 56.7268 29.6971 56.87C30.2035 57.2338 31.4192 57.2338 31.9256 56.87C32.125 56.7268 34.2527 53.6867 36.654 50.1144L41.0199 43.6193V42.8774C41.0199 42.0761 40.8083 41.6662 40.1363 41.1663C39.8228 40.933 39.5631 40.8981 37.8689 40.8617L35.9556 40.8207L35.9196 35.3447C35.8847 30.0422 35.8752 29.8574 35.6187 29.5159C35.4731 29.3219 35.1946 29.0446 34.9997 28.8997C34.6635 28.6498 34.4568 28.6347 30.9627 28.6063C28.0865 28.5831 27.1957 28.6145 26.8949 28.7498Z" fill="white"/>
</svg>
