<svg width="46" height="63" viewBox="0 0 46 63" fill="none" xmlns="http://www.w3.org/2000/svg">
<path fill-rule="evenodd" clip-rule="evenodd" d="M22.5217 0.198501C22.3875 0.332765 22.2781 1.21507 22.2781 2.15954C22.2781 3.65385 22.3722 3.8762 23.0046 3.8762C23.6575 3.8762 23.7205 3.68972 23.6242 2.03948C23.5247 0.330278 23.0988 -0.380824 22.5217 0.198501ZM16.4435 2.08814C16.1323 2.59359 17.6059 5.29699 18.1926 5.29699C19.1 5.29699 19.1478 4.60648 18.3399 3.16439C17.5666 1.78339 16.8734 1.39018 16.4435 2.08814ZM27.6325 3.16439C26.8245 4.60648 26.8723 5.29699 27.7798 5.29699C28.3665 5.29699 29.8401 2.59359 29.5288 2.08814C29.099 1.39018 28.4058 1.78339 27.6325 3.16439ZM12.2465 6.24429C11.6903 6.80195 12.1045 7.4619 13.4386 8.14459C15.8133 9.36007 16.4984 8.09309 14.1751 6.78312C12.6523 5.92462 12.5839 5.90544 12.2465 6.24429ZM19.9767 6.59878C17.876 7.71232 16.7877 9.17679 16.2322 11.6376C15.8321 13.4097 16.6634 16.1376 18.0368 17.5591C18.7559 18.3032 19.2802 19.2722 19.4155 20.1055C19.5582 20.9871 19.845 21.4918 20.2475 21.5696C20.7581 21.668 20.8618 21.414 20.8618 20.0646C20.8618 18.7245 20.6547 18.2091 19.6736 17.1083C18.0379 15.273 17.6753 14.4703 17.6753 12.6844C17.6753 9.86445 20.1629 7.42745 23.0396 7.42887C25.8732 7.42994 28.2971 9.83923 28.2971 12.6545C28.2971 14.4703 27.9395 15.2673 26.2988 17.1083C25.3177 18.2091 25.1105 18.7245 25.1105 20.0646C25.1105 21.414 25.2143 21.668 25.7248 21.5696C26.1274 21.4918 26.4142 20.9871 26.5569 20.1055C26.6921 19.2708 27.2168 18.3028 27.9395 17.5548C31.0254 14.3609 30.1042 8.72996 26.1663 6.71457C24.4831 5.85287 21.4892 5.7971 19.9767 6.59878ZM31.7491 6.79627C30.4476 7.55248 30.0836 8.24227 30.7634 8.66389C31.3487 9.02654 34.0187 7.45267 33.8958 6.81722C33.7283 5.95161 33.2114 5.94664 31.7491 6.79627ZM23.7899 11.7587C22.7355 12.8165 22.7082 12.8225 21.7732 12.208C21.0852 11.7559 20.7188 11.6919 20.437 11.9747C19.9583 12.4549 20.8455 13.9531 21.9644 14.5537C22.619 14.9054 22.9072 14.764 24.2657 13.4267C25.1197 12.586 25.8187 11.7083 25.8187 11.477C25.8187 10.5912 24.8145 10.7304 23.7899 11.7587ZM10.4171 12.4009C9.98656 13.0999 10.6639 13.4665 12.3853 13.4665C13.8986 13.4665 14.1347 13.3706 14.1347 12.7561C14.1347 12.1416 13.8986 12.0457 12.3853 12.0457C11.423 12.0457 10.5375 12.2055 10.4171 12.4009ZM31.8377 12.7561C31.8377 13.4349 32.009 13.4938 33.6965 13.3962C35.0653 13.3173 35.5553 13.1482 35.5553 12.7561C35.5553 12.364 35.0653 12.1949 33.6965 12.116C32.009 12.0184 31.8377 12.0773 31.8377 12.7561ZM13.3416 17.4791C12.1272 18.1966 11.5055 19.5048 12.3786 19.5048C13.3066 19.5048 15.5888 18.0119 15.4847 17.4731C15.3183 16.6128 14.8049 16.6142 13.3416 17.4791ZM30.6576 16.9002C30.1013 17.4578 30.5156 18.1178 31.8497 18.8005C34.2357 20.0216 34.8882 18.7951 32.5613 17.4625C31.0088 16.573 30.9893 16.5674 30.6576 16.9002ZM19.914 23.6255C19.5847 24.4861 20.4465 24.8218 22.9862 24.8218C25.5258 24.8218 26.3876 24.4861 26.0583 23.6255C25.8838 23.169 25.2769 23.0568 22.9862 23.0568C20.6954 23.0568 20.0886 23.169 19.914 23.6255ZM21.2832 26.8751C21.3756 27.3568 21.7594 27.4967 22.9862 27.4967C24.213 27.4967 24.5968 27.3568 24.6892 26.8751C24.7901 26.348 24.5309 26.2536 22.9862 26.2536C21.4414 26.2536 21.1823 26.348 21.2832 26.8751ZM21.2159 29.8677C18.3632 30.6811 16.2746 33.4321 16.2746 36.3766C16.2746 40.6401 20.4851 43.9977 24.4909 42.9286C31.3363 41.1018 31.3997 31.7115 24.5794 29.8425C22.9472 29.3953 22.8715 29.3956 21.2159 29.8677ZM5.71625 33.3795C1.31389 35.6243 1.38364 42.2168 5.83239 44.3774C9.03626 45.9332 12.7043 44.6186 14.1655 41.3906C15.0025 39.5418 15.0025 38.1842 14.1655 36.3354C12.7008 33.0996 8.88366 31.7641 5.71625 33.3795ZM34.8479 33.2065C33.2514 34.0416 32.5132 34.8084 31.7955 36.3766C30.9699 38.1807 30.9727 39.5482 31.8068 41.3906C34.5345 47.4165 43.5216 45.4775 43.5216 38.863C43.5216 34.4156 38.632 31.227 34.8479 33.2065ZM6.46367 34.7832C4.03554 36.0179 3.21058 38.7117 4.51387 41.1498C5.37848 42.767 7.19445 43.748 8.9258 43.5335C11.5731 43.2049 13.1317 41.4744 13.1317 38.863C13.1317 35.1981 9.73482 33.1199 6.46367 34.7832ZM35.5553 34.5662C31.3381 36.4335 32.1128 42.6562 36.6695 43.5136C37.6945 43.7068 38.3297 43.5829 39.4949 42.9627C43.1208 41.0329 42.8468 36.1912 39.0187 34.5548C37.6205 33.957 36.9251 33.9595 35.5553 34.5662ZM20.0539 45.5677C17.0936 46.6752 14.9731 48.8085 13.9379 51.7204C13.6514 52.526 13.4514 54.6181 13.4422 56.9052C13.4277 60.4721 13.485 60.7985 14.2622 61.5782C15.2241 62.5429 18.0272 63 22.9862 63C27.9451 63 30.7482 62.5429 31.7102 61.5782C32.4803 60.8056 32.5458 60.4536 32.5436 57.0828C32.5415 52.7817 32.2176 51.4025 30.6774 49.1307C28.4932 45.909 23.5615 44.2552 20.0539 45.5677ZM4.6346 47.7795C0.934335 49.6294 -1.24844 54.4714 0.76899 56.3546C1.62829 57.1567 9.35102 61.0628 10.0776 61.0628C10.3201 61.0628 10.6111 60.8202 10.7244 60.5236C10.8802 60.1169 9.95504 59.5201 6.95617 58.0926C4.77021 57.0519 2.58567 55.8719 2.10131 55.4702C1.26007 54.7719 1.24237 54.6792 1.70689 53.3724C2.4837 51.1865 3.39717 50.1607 5.47479 49.141C7.07584 48.3553 7.71562 48.2249 9.09539 48.4039C12.2366 48.8113 12.4699 48.8081 12.6254 48.3595C12.8597 47.6822 10.5219 46.8549 8.37346 46.8549C7.04822 46.8549 5.93258 47.1309 4.6346 47.7795ZM34.3738 47.3785C33.0499 47.9766 33.0347 48.8742 34.3518 48.6892C37.1149 48.3013 39.5158 48.4878 40.8661 49.1953C42.6081 50.1078 44.2715 52.3885 44.349 53.9706C44.4021 55.0585 44.2449 55.2436 42.3589 56.3166C41.2322 56.9574 39.3203 57.9168 38.1102 58.4485C35.3839 59.6459 35.016 59.918 35.26 60.5559C35.5609 61.3423 36.0555 61.2006 40.2943 59.1138C44.9152 56.8388 46 55.9092 46 54.2256C46 52.3907 44.0176 49.3864 41.9705 48.1198C39.8882 46.8315 36.3498 46.4862 34.3738 47.3785Z" fill="white"/>
</svg>
