<svg width="64" height="57" viewBox="0 0 64 57" fill="none" xmlns="http://www.w3.org/2000/svg">
<path fill-rule="evenodd" clip-rule="evenodd" d="M30.0056 2.23603C29.1867 3.45972 27.0117 5.86028 25.1722 7.56993C23.3331 9.27992 21.3433 11.3944 20.7505 12.2693L19.6726 13.8601L18.3417 11.8546C17.6094 10.7517 16.9347 9.84527 16.8421 9.84018C16.7495 9.83543 16.2233 10.5566 15.6733 11.4429C15.1229 12.329 12.8953 14.8103 10.723 16.9567C4.8795 22.7301 5.24261 21.4052 5.12202 37.4025L5.02299 50.5523H6.53507H8.04716L8.14989 37.7419C8.24354 26.0611 8.30754 24.8266 8.87478 23.7437C9.21667 23.0904 11.1788 20.9176 13.2349 18.9147L16.9728 15.2735L17.9042 16.3696L18.8359 17.4657L18.8493 34.009L18.8632 50.5523H23.7656H28.668L28.5656 37.4025L28.4632 24.2527L27.5261 22.3303C26.9369 21.1215 25.7772 19.6427 24.4035 18.348L22.2181 16.2885L22.7358 15.0404C23.0498 14.2836 24.9078 12.1769 27.4547 9.69019L31.6554 5.58847L35.4651 9.32132C39.3617 13.139 40.4847 14.491 40.9125 15.8779C41.1149 16.5349 40.8125 17.0256 39.0929 18.8296C35.4563 22.6452 35.5533 22.1525 35.4344 37.4025L35.332 50.5523H39.8976H44.4632L44.477 34.3484L44.4908 18.1444L45.7704 16.7198L47.0498 15.2952L50.7766 18.9256C52.8263 20.9223 54.7833 23.0904 55.1252 23.7437C55.6925 24.8266 55.7565 26.0611 55.8501 37.7419L55.9528 50.5523H57.4649H58.977L58.878 37.4025L58.7789 24.2527L57.8277 22.3015C57.1362 20.8823 56.0505 19.586 53.8493 17.5506C52.1843 16.0106 50.044 13.682 49.0931 12.3755C48.1421 11.069 47.3095 9.92807 47.2424 9.84018C47.1758 9.75229 46.9837 9.905 46.8153 10.1795C46.0143 11.4867 43.9343 14.2385 43.746 14.2402C43.6298 14.2412 43.3351 13.7573 43.0915 13.1651C42.8483 12.573 40.5144 9.9386 37.9052 7.31135C35.296 4.6841 32.8657 1.96183 32.5043 1.26175C32.1425 0.562013 31.7676 -0.0060595 31.6709 4.88032e-05C31.5739 0.00581775 30.8248 1.01199 30.0056 2.23603ZM21.8947 33.8607V47.4982H23.7716H25.6485L25.54 36.2148C25.4363 25.4106 25.4006 24.8737 24.7047 23.574C24.3045 22.8275 23.5089 21.768 22.9363 21.22L21.8947 20.2233V33.8607ZM40.5191 21.7924C38.595 23.9124 38.5768 24.0396 38.46 36.2148L38.3515 47.4982H39.8915H41.4316V34.2635C41.4316 26.9845 41.3821 21.0289 41.3218 21.0289C41.2615 21.0289 40.9004 21.3723 40.5191 21.7924ZM0 55.4729V57H32H64V55.4729V53.9459H32H0V55.4729Z" fill="white"/>
</svg>
